<svg version="1.1" id="Layer_1" xmlns="http://www.w3.org/2000/svg" xmlns:xlink="http://www.w3.org/1999/xlink" x="0px" y="0px"
	 width="100%" viewBox="0 0 1024 1024" enable-background="new 0 0 1024 1024" xml:space="preserve">
<path fill="#012520" opacity="1.000000" stroke="none" 
	d="
M570.000000,1025.000000 
	C380.000000,1025.000000 190.500000,1025.000000 1.000000,1025.000000 
	C1.000000,683.666687 1.000000,342.333344 1.000000,1.000000 
	C342.333344,1.000000 683.666687,1.000000 1025.000000,1.000000 
	C1025.000000,342.333344 1025.000000,683.666687 1025.000000,1025.000000 
	C873.500000,1025.000000 722.000000,1025.000000 570.000000,1025.000000 
M297.020691,736.978821 
	C297.020691,736.978821 297.062012,736.900269 297.028473,737.776184 
	C297.026672,744.824219 297.396667,745.146240 305.077698,744.919922 
	C305.077698,744.919922 305.128693,744.819824 305.075470,745.574158 
	C306.050507,747.232483 306.633270,749.702576 308.073364,750.398560 
	C312.593811,752.583008 312.804962,759.992310 319.423553,759.560608 
	C319.873749,759.531250 320.666229,761.651367 320.943329,762.853943 
	C321.287109,764.345764 321.259308,765.923218 321.318970,766.615662 
	C324.457062,766.787659 327.306641,766.099304 329.018036,767.192627 
	C334.607971,770.763794 339.697845,775.106445 345.151550,778.906311 
	C348.123199,780.976746 351.396149,782.636841 354.620575,784.313965 
	C356.490814,785.286743 359.628113,785.396729 360.311035,786.807312 
	C363.310638,793.002808 368.443726,793.335693 374.021088,792.977783 
	C374.021088,792.977783 374.084625,792.884277 374.126678,793.590210 
	C374.302246,794.052368 374.421387,794.546509 374.662231,794.971680 
	C376.729401,798.620667 380.084686,799.298828 383.994781,799.639038 
	C390.216797,800.180298 393.350800,807.540405 400.673187,807.057251 
	C404.151550,806.827698 407.996155,809.766968 411.430542,811.703918 
	C421.272217,817.254456 433.780029,814.472961 442.987732,821.919983 
	C443.299347,822.172058 443.976959,821.918945 444.457245,822.023804 
	C447.918945,822.779358 451.378082,823.547791 454.829071,824.350525 
	C457.011536,824.858215 459.160492,825.807129 461.355591,825.912903 
	C472.484802,826.449585 483.622253,827.030090 494.760468,827.114075 
	C511.094116,827.237305 527.450378,827.401611 543.759827,826.691956 
	C555.743408,826.170654 567.647644,824.005188 579.628052,823.135803 
	C584.113342,822.810242 586.869324,821.401733 588.530640,817.437012 
	C588.438599,817.581299 588.346497,817.725586 588.664429,817.983093 
	C588.795898,817.996582 588.927307,818.010071 589.058777,818.023499 
	C588.802368,817.965698 588.545898,817.907898 588.701660,817.024902 
	C589.008667,817.007996 589.315674,816.991150 590.375183,817.397278 
	C596.006958,816.284668 601.675049,815.324341 607.254883,813.993896 
	C609.957764,813.349426 612.463318,811.918762 615.113403,811.003784 
	C622.899841,808.315125 630.746826,805.795776 638.474487,802.950439 
	C639.414978,802.604126 639.771790,800.672729 640.504578,799.357056 
	C640.504578,799.357056 640.663330,799.351074 641.338379,799.727051 
	C643.037842,799.726257 644.910400,800.184875 646.398926,799.624084 
	C649.076172,798.615601 651.650024,797.180237 654.014282,795.555359 
	C655.245422,794.709412 655.937317,793.078857 656.889954,791.899841 
	C656.889954,791.899841 656.805786,791.848450 657.570618,791.946228 
	C661.854492,793.289551 665.230347,791.758789 668.203674,788.704956 
	C670.678955,786.162659 673.057800,783.590698 677.308594,784.237671 
	C678.455872,784.412292 679.932373,782.854065 681.163452,781.961121 
	C684.234314,779.733887 686.943115,776.468567 690.358765,775.377014 
	C696.017029,773.568726 698.741577,769.694824 700.928955,764.926147 
	C700.928955,764.926147 700.815613,764.849060 701.585083,764.914124 
	C707.469543,761.747803 713.355408,758.584045 719.234192,755.407349 
	C719.517639,755.254211 719.783081,755.021973 719.983948,754.768677 
	C722.702820,751.339355 725.389893,747.884583 728.138977,744.479736 
	C728.529175,743.996460 729.309265,743.339172 729.731812,743.448303 
	C733.112732,744.321167 733.353271,741.777405 734.356628,739.692627 
	C734.915710,738.531067 736.353821,737.770081 737.448792,736.894897 
	C738.697937,735.896240 740.234680,735.166748 741.248474,733.980225 
	C745.323853,729.210510 749.489441,724.485107 753.150146,719.403687 
	C756.353455,714.957214 762.089050,711.737488 760.989807,704.985352 
	C760.989807,704.985352 760.918579,704.953979 761.675659,704.963196 
	C763.395874,703.653748 765.474365,702.627014 766.771057,700.983459 
	C771.168884,695.409180 776.344666,690.305115 778.410828,683.178650 
	C778.570618,682.627380 779.257446,682.093628 779.827881,681.818481 
	C783.686829,679.957642 784.961121,676.653809 785.730652,672.670715 
	C786.236938,670.050110 787.689575,667.547119 789.030945,665.167603 
	C791.233337,661.260681 794.236084,657.721497 795.921326,653.624268 
	C799.119751,645.848389 800.106873,637.130615 806.119141,630.574646 
	C806.627441,630.020386 806.730591,629.047913 806.908020,628.244568 
	C808.081360,622.934143 809.374207,617.643738 810.329102,612.293457 
	C811.112305,607.904785 811.481445,603.442261 811.976868,598.494202 
	C812.042297,598.333130 812.107727,598.172119 812.904785,597.848999 
	C813.497009,597.307251 814.473999,596.853271 814.620789,596.209900 
	C815.830200,590.909241 817.050842,585.601013 817.949097,580.241699 
	C819.343994,571.919495 820.729919,563.582520 821.672852,555.201477 
	C822.709412,545.988464 824.165222,536.677490 823.757446,527.483765 
	C823.247070,515.976074 824.868958,504.442474 822.215393,492.890686 
	C819.856384,482.621277 819.499695,471.908142 817.793518,461.466949 
	C816.633911,454.371094 814.758728,447.384918 813.041077,440.389557 
	C811.330566,433.423126 809.575134,426.459351 807.526001,419.587891 
	C806.506653,416.169678 804.893127,412.909241 803.344543,409.674988 
	C802.293945,407.480682 800.432800,405.600372 799.715271,403.332520 
	C794.445984,386.679840 785.763184,371.805267 776.210266,357.360229 
	C774.353638,354.552734 771.277405,352.246277 772.686401,348.090759 
	C772.896973,347.469818 771.973267,346.290649 771.336609,345.583893 
	C767.017883,340.790009 762.711060,335.980133 758.218323,331.352142 
	C757.141052,330.242401 755.377075,329.799225 753.302490,328.802124 
	C737.743530,309.287567 719.847290,292.128021 699.952515,277.150696 
	C652.861511,241.699387 600.134766,220.597031 541.157104,215.824692 
	C490.338898,211.712616 441.262207,218.807510 394.361877,239.166809 
	C372.508392,248.653320 351.788788,260.203064 332.304199,275.119568 
	C329.845642,277.056305 327.387115,278.993011 325.000000,281.000000 
	C325.000000,281.000000 324.930542,280.928558 324.286621,281.140198 
	C295.988861,303.689728 272.254211,330.367737 253.704987,361.376495 
	C244.909912,376.079224 237.766907,391.770172 229.186752,407.128784 
	C227.772400,409.730652 226.106598,412.234711 225.041748,414.972534 
	C224.440964,416.517273 224.829636,418.446777 224.806412,420.621246 
	C224.806412,420.621246 224.508743,420.917023 223.869125,421.234375 
	C219.674545,423.367981 220.671585,427.709351 219.844330,431.156921 
	C216.142853,446.582855 212.463440,462.021088 209.256149,477.554016 
	C208.363983,481.874695 209.118195,486.535309 209.240219,491.706940 
	C209.134155,492.143616 209.028091,492.580292 208.661377,493.201111 
	C208.474182,493.513977 208.546097,493.773376 208.999588,494.838959 
	C208.842819,496.558167 208.686050,498.277405 207.903473,500.292542 
	C206.976151,504.022858 205.567642,507.710114 205.229401,511.493103 
	C204.659973,517.861755 205.501282,524.422241 204.384140,530.657471 
	C203.315399,536.622498 206.980179,540.395691 208.970917,545.065918 
	C208.970917,545.065918 209.123505,544.936890 209.009583,545.648865 
	C208.954636,546.124756 208.899689,546.600708 208.376099,547.714600 
	C208.583878,551.977966 208.635910,556.255859 209.031906,560.501648 
	C209.853226,569.307373 210.017029,578.289307 211.985107,586.845947 
	C214.859665,599.343628 219.072815,611.534119 222.742111,623.847595 
	C223.448166,626.216980 223.748322,628.953796 225.166443,630.810181 
	C227.671616,634.089661 226.341125,640.041016 232.665573,641.263611 
	C232.778000,641.837524 232.890411,642.411499 232.508591,643.511475 
	C232.567856,644.782410 232.287445,646.194946 232.747650,647.298706 
	C234.376495,651.205322 236.382217,654.954834 238.007355,658.862793 
	C239.425888,662.273987 239.492294,667.191040 241.958527,669.044434 
	C249.104172,674.414612 247.948380,685.329956 256.464081,689.385498 
	C256.684570,689.490601 256.752686,689.965271 256.845764,690.281128 
	C258.561401,696.102356 259.646667,701.840942 265.689911,705.705505 
	C269.746429,708.299561 272.850586,713.000732 275.248260,717.379272 
	C277.236389,721.009949 284.678802,721.562988 280.869324,728.132202 
	C284.050323,728.405212 286.627747,728.626465 289.097504,728.908386 
	C289.097504,728.908386 289.156464,728.799805 289.076752,729.598511 
	C289.809296,735.150391 291.464050,736.664124 297.020691,736.978821 
z"/>
<path fill="#FEFCD4" opacity="1.000000" stroke="none" 
	d="
M588.254333,817.869934 
	C588.346497,817.725586 588.438599,817.581299 587.970032,817.252686 
	C572.574707,819.691895 557.832336,823.201477 542.886536,824.759644 
	C508.867859,828.306335 474.945923,825.680420 441.875122,817.526306 
	C422.756287,812.812256 404.520599,804.501526 385.914124,797.736145 
	C381.912018,796.280884 378.024780,794.509827 374.084625,792.884277 
	C374.084625,792.884277 374.021088,792.977783 373.963806,792.617676 
	C365.548615,787.302185 356.826111,782.863586 348.911438,777.279907 
	C334.070343,766.809692 319.696747,755.677002 305.128693,744.819824 
	C305.128693,744.819824 305.077698,744.919922 304.993225,744.586060 
	C302.293182,741.801514 299.677612,739.350891 297.062012,736.900269 
	C297.062012,736.900269 297.020691,736.978821 296.937439,736.644958 
	C294.288269,733.807312 291.722382,731.303528 289.156494,728.799805 
	C289.156464,728.799805 289.097504,728.908386 289.037048,728.559326 
	C287.130829,726.085510 285.281494,723.963745 283.439819,721.835449 
	C269.891968,706.178711 257.679840,689.581360 248.028702,670.924622 
	C250.075638,663.300110 247.447510,658.806885 239.788147,656.131836 
	C239.800354,656.106201 239.781143,656.165527 239.837769,655.754272 
	C239.752350,654.197693 239.779556,652.999695 239.441498,651.915588 
	C236.714828,643.171265 233.885971,634.458801 231.172775,625.710388 
	C230.618179,623.922180 230.745819,621.877319 229.995239,620.203491 
	C227.651978,614.978027 222.929642,610.688721 223.922577,604.172852 
	C224.013504,603.576233 223.661499,602.887024 223.433975,602.270874 
	C220.910309,595.436218 217.452194,588.785278 216.086304,581.728577 
	C214.638748,574.249939 214.881561,566.384583 214.952255,558.693298 
	C214.996902,553.835876 213.407928,550.622314 209.305740,549.944458 
	C209.198242,549.123169 209.210403,548.559875 209.338379,547.882935 
	C209.589905,547.433838 209.498459,547.161194 209.083130,546.948120 
	C208.986404,546.944702 208.844742,547.076599 208.844742,547.076599 
	C208.899689,546.600708 208.954636,546.124756 209.309296,544.964294 
	C209.739426,532.298706 209.581055,520.304504 210.127075,508.342499 
	C210.384476,502.703461 212.085739,497.140564 212.967209,491.517181 
	C214.046326,484.633026 215.797714,477.701324 215.632584,470.829254 
	C215.524063,466.313202 215.373184,463.801025 220.969086,464.474121 
	C220.613525,461.075684 220.202682,458.152954 220.029053,455.216248 
	C219.842514,452.061127 219.386566,448.836060 224.270432,448.425354 
	C225.306717,448.338196 226.373611,445.477905 226.954041,443.737732 
	C228.305145,439.686920 226.982208,434.583313 232.058090,432.008942 
	C232.938675,431.562286 233.737946,429.498627 233.468033,428.473145 
	C231.504013,421.011017 233.866669,415.204926 239.665909,410.476410 
	C240.142349,410.087921 240.341202,409.339539 240.625458,408.737793 
	C243.845627,401.921356 250.022034,396.599640 250.814682,388.533569 
	C250.886520,387.802460 251.512024,386.885040 252.150345,386.487000 
	C259.763031,381.740082 261.425232,372.987640 265.873779,366.130219 
	C269.755035,360.147247 272.250427,352.965576 277.069489,347.961639 
	C284.114319,340.646576 289.172241,332.181946 294.759094,323.948883 
	C297.156891,320.415344 299.270081,317.292206 294.958252,313.400208 
	C298.590179,310.929138 305.348999,311.858948 303.587769,304.749420 
	C303.419891,304.071716 304.858765,302.908813 305.676086,302.096252 
	C306.693085,301.085205 308.498993,300.381256 308.806793,299.234100 
	C309.745667,295.734894 311.761719,295.901794 314.542328,296.601593 
	C316.678589,297.139221 319.528809,298.093109 320.011871,294.481995 
	C320.510162,290.756775 321.482788,287.454163 324.338745,284.741577 
	C325.077087,284.040283 324.761841,282.229614 324.930542,280.928558 
	C324.930542,280.928558 325.000000,281.000000 325.404663,280.988098 
	C328.645874,280.761261 331.482391,280.546295 334.498627,280.317749 
	C333.825623,277.965942 333.392334,276.451721 332.959015,274.937531 
	C351.788788,260.203064 372.508392,248.653320 394.361877,239.166809 
	C441.262207,218.807510 490.338898,211.712616 541.157104,215.824692 
	C600.134766,220.597031 652.861511,241.699387 699.952515,277.150696 
	C719.847290,292.128021 737.743530,309.287567 753.712341,329.252075 
	C780.547546,362.657501 799.221924,399.548676 810.508850,440.244019 
	C818.899719,470.497131 822.512756,501.220642 821.303589,532.634216 
	C820.451050,554.781372 816.997742,576.468201 812.173157,598.011108 
	C812.107727,598.172119 812.042297,598.333130 811.800293,599.063110 
	C807.524048,612.157349 803.937927,624.879944 799.216431,637.166199 
	C789.821777,661.613037 775.986572,683.656555 760.918579,704.953979 
	C760.918579,704.953979 760.989807,704.985352 760.662720,705.090637 
	C752.381287,714.532227 745.016602,724.465027 736.325867,733.056396 
	C725.041016,744.212219 712.701294,754.301025 700.815613,764.849060 
	C700.815613,764.849060 700.928955,764.926147 700.552002,764.938477 
	C685.718628,773.916748 671.262207,782.882629 656.805786,791.848450 
	C656.805786,791.848450 656.889954,791.899841 656.516479,791.903931 
	C650.983093,794.389099 645.823242,796.870056 640.663330,799.351074 
	C640.663330,799.351074 640.504578,799.357056 640.112305,799.529175 
	C636.959778,800.814453 634.246826,802.067566 631.431519,803.017273 
	C617.510071,807.713684 603.561584,812.329834 589.622620,816.974243 
	C589.315674,816.991150 589.008667,817.007996 588.480530,817.410156 
	C588.259399,817.795410 588.254333,817.869934 588.254333,817.869934 
M690.315063,705.394043 
	C690.315063,705.394043 690.416260,705.429016 690.792297,705.365540 
	C690.792297,705.365540 691.002014,705.046997 691.654419,704.815918 
	C691.791870,704.630615 691.929321,704.445374 692.296997,704.318420 
	C692.296997,704.318420 692.566162,703.961609 693.190857,703.636841 
	C698.401001,698.494385 702.361084,692.771667 702.023499,684.054443 
	C702.030273,578.703552 702.039673,473.352661 702.035645,368.001770 
	C702.035461,363.014343 701.916809,358.026917 701.956177,352.276672 
	C699.741516,348.140808 697.526794,344.004974 695.086243,339.355896 
	C694.761597,339.191345 694.437012,339.026794 694.068420,338.979004 
	C694.068420,338.979004 694.154175,338.888367 693.952942,338.295868 
	C693.115112,337.713715 692.277222,337.131561 691.394897,336.578552 
	C691.394897,336.578552 691.350464,336.549438 690.920166,336.028534 
	C686.222534,334.669708 681.560669,332.308746 676.820496,332.139343 
	C662.411133,331.624390 647.968506,331.779541 633.544617,332.020966 
	C624.149414,332.178162 615.807800,335.534698 608.360474,342.028778 
	C608.076599,342.183594 607.922546,342.422211 607.266602,342.999298 
	C603.897095,347.260834 599.811890,351.141205 597.299438,355.859131 
	C591.080444,367.537445 585.551514,379.584839 579.835815,391.527191 
	C579.225464,392.802490 579.212402,394.363647 578.332153,396.097961 
	C577.858826,397.306427 577.385559,398.514893 576.229858,399.924896 
	C575.678894,400.721741 575.011108,401.462036 574.593933,402.323639 
	C562.519470,427.256348 550.428345,452.181122 538.431946,477.151398 
	C530.898010,492.833221 523.512207,508.586243 515.574585,524.735168 
	C514.541443,523.375427 513.508301,522.015686 512.473328,520.600342 
	C512.473328,520.600342 512.466614,520.545105 512.301025,519.859009 
	C506.987518,509.134735 501.674011,498.410431 496.290161,487.628265 
	C496.290161,487.628265 496.378113,487.659515 496.230591,486.957977 
	C489.807312,473.695679 483.384033,460.433380 476.858154,446.508514 
	C476.711182,446.340271 476.564240,446.171997 476.273804,445.384155 
	C475.263885,443.511841 474.253998,441.639526 473.201965,439.912628 
	C473.201965,439.912628 473.302368,439.799316 473.264771,439.303864 
	C473.264771,439.303864 472.945831,438.922913 472.888062,438.435333 
	C472.888062,438.435333 472.557281,438.072510 472.410278,437.543732 
	C472.054230,436.930145 471.698181,436.316589 471.297974,435.796021 
	C471.297974,435.796021 471.400543,435.787109 471.317627,435.177704 
	C470.970825,434.692505 470.624023,434.207306 470.227386,433.996857 
	C470.227386,433.996857 470.306183,433.728333 470.244263,433.136932 
	C469.964569,432.624268 469.684845,432.111572 469.296570,431.050293 
	C469.022919,430.573944 468.749298,430.097565 468.340546,429.069061 
	C468.041046,428.601685 467.741547,428.134277 467.209167,427.946899 
	C467.209167,427.946899 467.474579,427.697479 467.358887,427.123230 
	C467.052551,426.641052 466.746216,426.158875 466.368774,425.603271 
	C466.368774,425.603271 466.464935,425.637970 466.252625,424.960907 
	C464.867279,422.240021 463.481964,419.519165 462.007782,416.081909 
	C459.729767,411.290649 457.496521,406.477478 455.164856,401.712494 
	C449.487091,390.109436 443.763733,378.528687 437.997803,366.992859 
	C437.997803,366.992859 438.061066,366.946198 438.009338,366.254181 
	C437.045471,364.453796 436.081573,362.653381 435.069397,360.926270 
	C435.069397,360.926270 435.157104,360.922699 435.043610,360.383514 
	C434.750061,360.179352 434.456512,359.975189 434.152618,359.858459 
	C434.152618,359.858459 434.238190,359.837830 434.168701,359.106812 
	C429.924316,348.863342 422.859283,341.240387 412.345215,335.842010 
	C407.584320,334.561279 402.853638,332.328491 398.056946,332.176300 
	C382.961792,331.697327 367.839569,331.839417 352.732117,332.047882 
	C339.345367,332.232635 328.460114,342.652802 328.045135,353.919067 
	C328.087616,377.597961 328.130066,401.276886 328.027466,425.844543 
	C328.073914,428.243317 328.120392,430.642059 327.997681,433.905609 
	C328.054413,436.250610 328.111115,438.595612 328.026306,441.875946 
	C328.016541,487.293884 327.987488,532.711792 328.005646,578.129761 
	C328.014038,599.088440 328.114777,620.047058 328.013306,641.931702 
	C328.090607,657.634705 328.167938,673.337646 328.225433,689.771545 
	C329.657990,695.447571 331.708435,700.748535 336.955414,704.044678 
	C336.955414,704.044678 336.878906,704.064209 337.108124,704.628723 
	C337.741394,705.129639 338.374695,705.630615 339.287964,706.524597 
	C339.527588,706.767029 339.817871,706.889771 340.071869,706.949829 
	C340.071869,706.949829 340.107056,706.851990 340.070770,707.556274 
	C340.402649,711.313843 342.700928,708.735718 344.161926,708.861633 
	C344.161926,708.861633 344.170868,708.817871 344.237427,709.528625 
	C345.709015,710.432129 347.654663,711.003784 348.562927,712.301575 
	C351.246094,716.135315 355.340332,715.806580 358.395111,714.671875 
	C366.620239,711.616638 374.925079,711.090027 383.485382,711.681152 
	C384.026520,711.718567 384.639374,710.717712 385.984436,710.143555 
	C387.375397,710.567261 388.838318,711.497070 390.142700,711.311584 
	C393.055420,710.897522 397.886597,710.544434 398.346222,709.057068 
	C399.357483,705.784790 401.509399,705.140015 403.750641,703.680298 
	C405.224579,702.720398 406.142944,700.651001 406.887665,698.898865 
	C407.649261,697.106934 408.023163,695.117065 408.342285,693.176819 
	C409.192474,688.007812 410.501526,682.828003 410.581726,677.636230 
	C410.762726,665.919067 410.303406,654.192261 410.143738,642.468811 
	C410.135071,641.832458 410.556580,641.202087 410.655151,640.550415 
	C411.123901,637.451721 411.901062,634.349976 411.931244,631.243103 
	C412.068817,617.083069 411.980164,602.921021 412.010559,588.759705 
	C412.013733,587.274292 412.483765,585.769836 412.352478,584.308777 
	C412.125763,581.785767 411.585999,579.291626 411.198181,576.782227 
	C410.843292,574.485901 410.301758,572.190918 410.241608,569.885010 
	C410.190643,567.931824 410.984833,565.955688 410.928040,564.003662 
	C410.725403,557.040283 410.407318,550.076599 409.917175,543.128357 
	C409.817505,541.715271 408.780243,540.368347 408.058533,538.060669 
	C408.058533,518.548584 408.058533,499.036499 408.058533,478.137909 
	C409.715210,481.001312 410.668274,482.648621 411.659241,484.336090 
	C411.659241,484.336090 411.625427,484.379761 411.770325,485.072693 
	C416.809418,495.431091 421.848541,505.789490 426.944336,516.072632 
	C426.944336,516.072632 426.851105,516.086182 426.913391,516.824524 
	C428.617523,520.434692 430.291046,524.059631 432.031128,527.652405 
	C440.215271,544.550476 448.417633,561.439819 456.640747,578.228699 
	C456.640747,578.228699 456.539368,578.263000 456.646912,578.847778 
	C456.941589,579.349548 457.236267,579.851379 457.565948,580.393372 
	C457.565948,580.393372 457.550690,580.444458 457.724121,581.140930 
	C464.125916,594.451843 470.339294,607.857483 476.973938,621.051331 
	C486.761230,640.514526 502.612946,648.742615 523.139282,646.078064 
	C525.778259,650.494873 529.626282,649.224487 533.237549,647.976440 
	C534.451111,647.557007 535.127563,645.762512 536.326172,645.088318 
	C540.370483,642.813477 543.651245,640.072449 544.621033,635.273987 
	C546.081543,634.183472 547.541992,633.092957 549.225647,631.906921 
	C549.225647,631.906921 549.239319,631.605774 549.239319,631.605774 
	C549.239319,631.605774 548.997559,631.997559 548.429443,631.731445 
	C547.865906,631.459717 547.302307,631.187988 546.943054,630.262268 
	C548.007996,628.533386 549.072876,626.804504 550.053040,625.051514 
	C550.053040,625.051514 550.090393,625.131287 550.681213,624.777893 
	C552.346680,621.615784 554.012146,618.453735 555.783020,615.941895 
	C555.921387,616.560486 556.059692,617.179138 556.532776,619.294128 
	C558.435364,615.528931 559.771423,612.856079 561.134583,610.197144 
	C562.089294,608.334961 562.617188,605.632324 564.146362,604.807068 
	C568.142395,602.650513 567.448792,598.764893 568.603882,595.547668 
	C569.361877,593.436340 569.845825,591.052368 571.179260,589.364807 
	C572.962158,587.108521 573.764160,585.518188 570.920776,583.216675 
	C577.685486,569.474182 584.450195,555.731628 591.566833,541.683899 
	C591.778748,541.435547 591.882324,541.148071 591.918579,540.915405 
	C591.918579,540.915405 591.824951,540.873962 592.609253,540.921265 
	C597.501526,541.328430 597.188293,536.733459 598.584229,534.204651 
	C601.855469,528.278442 604.126221,521.795288 607.456360,515.907715 
	C610.632263,510.293060 614.547974,505.081940 618.373657,499.865936 
	C618.943176,499.089508 620.803467,499.259888 622.242371,499.916748 
	C622.253601,559.640381 622.252258,619.364075 622.309937,679.087646 
	C622.313171,682.393005 622.806519,685.697815 623.017334,689.761292 
	C624.588440,695.687439 627.173340,700.963623 632.538269,704.501221 
	C632.538269,704.501221 632.541138,704.430542 632.863586,704.899170 
	C633.217957,705.016602 633.572266,705.134033 633.905579,705.122559 
	C633.905579,705.122559 633.782288,705.165894 634.174255,705.750977 
	C637.866577,707.106689 641.510925,709.449951 645.260254,709.632202 
	C656.338196,710.170654 667.470093,710.156738 678.553589,709.698547 
	C682.126831,709.550964 685.615295,707.354797 689.062866,706.071655 
	C689.062866,706.071655 689.052734,706.154297 689.612610,706.078552 
	C689.877380,705.831970 690.142090,705.585449 690.315063,705.394043 
M220.751968,476.806732 
	C220.176956,476.019226 219.601959,475.231720 219.026947,474.444214 
	C218.618103,474.564941 218.209259,474.685638 217.800430,474.806366 
	C217.960068,476.330109 218.119705,477.853821 218.279388,479.377563 
	C219.130447,478.741028 219.981522,478.104492 220.751968,476.806732 
z"/>
<path fill="#F3F4DA" opacity="1.000000" stroke="none" 
	d="
M324.608582,281.034363 
	C324.761841,282.229614 325.077087,284.040283 324.338745,284.741577 
	C321.482788,287.454163 320.510162,290.756775 320.011871,294.481995 
	C319.528809,298.093109 316.678589,297.139221 314.542328,296.601593 
	C311.761719,295.901794 309.745667,295.734894 308.806793,299.234100 
	C308.498993,300.381256 306.693085,301.085205 305.676086,302.096252 
	C304.858765,302.908813 303.419891,304.071716 303.587769,304.749420 
	C305.348999,311.858948 298.590179,310.929138 294.958252,313.400208 
	C299.270081,317.292206 297.156891,320.415344 294.759094,323.948883 
	C289.172241,332.181946 284.114319,340.646576 277.069489,347.961639 
	C272.250427,352.965576 269.755035,360.147247 265.873779,366.130219 
	C261.425232,372.987640 259.763031,381.740082 252.150345,386.487000 
	C251.512024,386.885040 250.886520,387.802460 250.814682,388.533569 
	C250.022034,396.599640 243.845627,401.921356 240.625458,408.737793 
	C240.341202,409.339539 240.142349,410.087921 239.665909,410.476410 
	C233.866669,415.204926 231.504013,421.011017 233.468033,428.473145 
	C233.737946,429.498627 232.938675,431.562286 232.058090,432.008942 
	C226.982208,434.583313 228.305145,439.686920 226.954041,443.737732 
	C226.373611,445.477905 225.306717,448.338196 224.270432,448.425354 
	C219.386566,448.836060 219.842514,452.061127 220.029053,455.216248 
	C220.202682,458.152954 220.613525,461.075684 220.969086,464.474121 
	C215.373184,463.801025 215.524063,466.313202 215.632584,470.829254 
	C215.797714,477.701324 214.046326,484.633026 212.967209,491.517181 
	C212.085739,497.140564 210.384476,502.703461 210.127075,508.342499 
	C209.581055,520.304504 209.739426,532.298706 209.366241,544.608276 
	C209.123505,544.936890 208.970917,545.065918 208.916672,544.631592 
	C208.751373,529.463684 208.640335,514.730164 208.529282,499.996613 
	C208.686050,498.277405 208.842819,496.558167 209.020004,494.171906 
	C209.000961,493.342255 208.961502,493.179626 208.922028,493.016968 
	C209.028091,492.580292 209.134155,492.143616 209.377777,491.027008 
	C210.520935,483.323883 211.053253,476.192657 212.627045,469.299194 
	C216.322784,453.111328 220.516541,437.037201 224.508728,420.917023 
	C224.508743,420.917023 224.806412,420.621246 224.952942,420.123413 
	C226.691452,415.421509 228.283447,411.217468 229.875443,407.013428 
	C237.766907,391.770172 244.909912,376.079224 253.704987,361.376495 
	C272.254211,330.367737 295.988861,303.689728 324.608582,281.034363 
M317.674866,291.136902 
	C317.605011,291.177551 317.535156,291.218170 317.674866,291.136902 
z"/>
<path fill="#102219" opacity="1.000000" stroke="none" 
	d="
M812.538940,597.930054 
	C816.997742,576.468201 820.451050,554.781372 821.303589,532.634216 
	C822.512756,501.220642 818.899719,470.497131 810.508850,440.244019 
	C799.221924,399.548676 780.547546,362.657501 754.025574,329.375793 
	C755.377075,329.799225 757.141052,330.242401 758.218323,331.352142 
	C762.711060,335.980133 767.017883,340.790009 771.336609,345.583893 
	C771.973267,346.290649 772.896973,347.469818 772.686401,348.090759 
	C771.277405,352.246277 774.353638,354.552734 776.210266,357.360229 
	C785.763184,371.805267 794.445984,386.679840 799.715271,403.332520 
	C800.432800,405.600372 802.293945,407.480682 803.344543,409.674988 
	C804.893127,412.909241 806.506653,416.169678 807.526001,419.587891 
	C809.575134,426.459351 811.330566,433.423126 813.041077,440.389557 
	C814.758728,447.384918 816.633911,454.371094 817.793518,461.466949 
	C819.499695,471.908142 819.856384,482.621277 822.215393,492.890686 
	C824.868958,504.442474 823.247070,515.976074 823.757446,527.483765 
	C824.165222,536.677490 822.709412,545.988464 821.672852,555.201477 
	C820.729919,563.582520 819.343994,571.919495 817.949097,580.241699 
	C817.050842,585.601013 815.830200,590.909241 814.620789,596.209900 
	C814.473999,596.853271 813.497009,597.307251 812.538940,597.930054 
z"/>
<path fill="#0F2214" opacity="1.000000" stroke="none" 
	d="
M374.105652,793.237305 
	C378.024780,794.509827 381.912018,796.280884 385.914124,797.736145 
	C404.520599,804.501526 422.756287,812.812256 441.875122,817.526306 
	C474.945923,825.680420 508.867859,828.306335 542.886536,824.759644 
	C557.832336,823.201477 572.574707,819.691895 587.759399,817.105774 
	C586.869324,821.401733 584.113342,822.810242 579.628052,823.135803 
	C567.647644,824.005188 555.743408,826.170654 543.759827,826.691956 
	C527.450378,827.401611 511.094116,827.237305 494.760468,827.114075 
	C483.622253,827.030090 472.484802,826.449585 461.355591,825.912903 
	C459.160492,825.807129 457.011536,824.858215 454.829071,824.350525 
	C451.378082,823.547791 447.918945,822.779358 444.457245,822.023804 
	C443.976959,821.918945 443.299347,822.172058 442.987732,821.919983 
	C433.780029,814.472961 421.272217,817.254456 411.430542,811.703918 
	C407.996155,809.766968 404.151550,806.827698 400.673187,807.057251 
	C393.350800,807.540405 390.216797,800.180298 383.994781,799.639038 
	C380.084686,799.298828 376.729401,798.620667 374.662231,794.971680 
	C374.421387,794.546509 374.302246,794.052368 374.105652,793.237305 
z"/>
<path fill="#F3F4DA" opacity="1.000000" stroke="none" 
	d="
M209.425400,550.202332 
	C213.407928,550.622314 214.996902,553.835876 214.952255,558.693298 
	C214.881561,566.384583 214.638748,574.249939 216.086304,581.728577 
	C217.452194,588.785278 220.910309,595.436218 223.433975,602.270874 
	C223.661499,602.887024 224.013504,603.576233 223.922577,604.172852 
	C222.929642,610.688721 227.651978,614.978027 229.995239,620.203491 
	C230.745819,621.877319 230.618179,623.922180 231.172775,625.710388 
	C233.885971,634.458801 236.714828,643.171265 239.441498,651.915588 
	C239.779556,652.999695 239.752350,654.197693 239.564453,655.539429 
	C237.157272,651.485779 235.080048,647.235596 233.002808,642.985413 
	C232.890411,642.411499 232.778000,641.837524 232.379532,640.730225 
	C220.123901,611.310364 212.384689,581.358337 209.425400,550.202332 
z"/>
<path fill="#0F2214" opacity="1.000000" stroke="none" 
	d="
M761.297119,704.958618 
	C775.986572,683.656555 789.821777,661.613037 799.216431,637.166199 
	C803.937927,624.879944 807.524048,612.157349 811.828918,599.322266 
	C811.481445,603.442261 811.112305,607.904785 810.329102,612.293457 
	C809.374207,617.643738 808.081360,622.934143 806.908020,628.244568 
	C806.730591,629.047913 806.627441,630.020386 806.119141,630.574646 
	C800.106873,637.130615 799.119751,645.848389 795.921326,653.624268 
	C794.236084,657.721497 791.233337,661.260681 789.030945,665.167603 
	C787.689575,667.547119 786.236938,670.050110 785.730652,672.670715 
	C784.961121,676.653809 783.686829,679.957642 779.827881,681.818481 
	C779.257446,682.093628 778.570618,682.627380 778.410828,683.178650 
	C776.344666,690.305115 771.168884,695.409180 766.771057,700.983459 
	C765.474365,702.627014 763.395874,703.653748 761.297119,704.958618 
z"/>
<path fill="#0F2214" opacity="1.000000" stroke="none" 
	d="
M232.755707,643.248413 
	C235.080048,647.235596 237.157272,651.485779 239.507812,655.950745 
	C239.781143,656.165527 239.800354,656.106201 239.837799,656.487671 
	C242.537659,661.678833 245.200089,666.488525 247.862518,671.298279 
	C257.679840,689.581360 269.891968,706.178711 283.439819,721.835449 
	C285.281494,723.963745 287.130829,726.085510 289.090881,728.528992 
	C286.627747,728.626465 284.050323,728.405212 280.869324,728.132202 
	C284.678802,721.562988 277.236389,721.009949 275.248260,717.379272 
	C272.850586,713.000732 269.746429,708.299561 265.689911,705.705505 
	C259.646667,701.840942 258.561401,696.102356 256.845764,690.281128 
	C256.752686,689.965271 256.684570,689.490601 256.464081,689.385498 
	C247.948380,685.329956 249.104172,674.414612 241.958527,669.044434 
	C239.492294,667.191040 239.425888,662.273987 238.007355,658.862793 
	C236.382217,654.954834 234.376495,651.205322 232.747650,647.298706 
	C232.287445,646.194946 232.567856,644.782410 232.755707,643.248413 
z"/>
<path fill="#0F2214" opacity="1.000000" stroke="none" 
	d="
M305.102081,745.197021 
	C319.696747,755.677002 334.070343,766.809692 348.911438,777.279907 
	C356.826111,782.863586 365.548615,787.302185 374.010498,792.585876 
	C368.443726,793.335693 363.310638,793.002808 360.311035,786.807312 
	C359.628113,785.396729 356.490814,785.286743 354.620575,784.313965 
	C351.396149,782.636841 348.123199,780.976746 345.151550,778.906311 
	C339.697845,775.106445 334.607971,770.763794 329.018036,767.192627 
	C327.306641,766.099304 324.457062,766.787659 321.318970,766.615662 
	C321.259308,765.923218 321.287109,764.345764 320.943329,762.853943 
	C320.666229,761.651367 319.873749,759.531250 319.423553,759.560608 
	C312.804962,759.992310 312.593811,752.583008 308.073364,750.398560 
	C306.633270,749.702576 306.050507,747.232483 305.102081,745.197021 
z"/>
<path fill="#0F2214" opacity="1.000000" stroke="none" 
	d="
M701.200317,764.881592 
	C712.701294,754.301025 725.041016,744.212219 736.325867,733.056396 
	C745.016602,724.465027 752.381287,714.532227 760.643799,705.056641 
	C762.089050,711.737488 756.353455,714.957214 753.150146,719.403687 
	C749.489441,724.485107 745.323853,729.210510 741.248474,733.980225 
	C740.234680,735.166748 738.697937,735.896240 737.448792,736.894897 
	C736.353821,737.770081 734.915710,738.531067 734.356628,739.692627 
	C733.353271,741.777405 733.112732,744.321167 729.731812,743.448303 
	C729.309265,743.339172 728.529175,743.996460 728.138977,744.479736 
	C725.389893,747.884583 722.702820,751.339355 719.983948,754.768677 
	C719.783081,755.021973 719.517639,755.254211 719.234192,755.407349 
	C713.355408,758.584045 707.469543,761.747803 701.200317,764.881592 
z"/>
<path fill="#0F2214" opacity="1.000000" stroke="none" 
	d="
M209.305740,549.944458 
	C212.384689,581.358337 220.123901,611.310364 232.126709,640.575195 
	C226.341125,640.041016 227.671616,634.089661 225.166443,630.810181 
	C223.748322,628.953796 223.448166,626.216980 222.742111,623.847595 
	C219.072815,611.534119 214.859665,599.343628 211.985107,586.845947 
	C210.017029,578.289307 209.853226,569.307373 209.031906,560.501648 
	C208.635910,556.255859 208.583878,551.977966 208.610413,547.395630 
	C208.844742,547.076599 208.986404,546.944702 209.020447,547.212280 
	C209.110504,547.652100 209.166534,547.824341 209.222565,547.996521 
	C209.210403,548.559875 209.198242,549.123169 209.305740,549.944458 
z"/>
<path fill="#0F2214" opacity="1.000000" stroke="none" 
	d="
M657.188232,791.897339 
	C671.262207,782.882629 685.718628,773.916748 700.516724,764.879761 
	C698.741577,769.694824 696.017029,773.568726 690.358765,775.377014 
	C686.943115,776.468567 684.234314,779.733887 681.163452,781.961121 
	C679.932373,782.854065 678.455872,784.412292 677.308594,784.237671 
	C673.057800,783.590698 670.678955,786.162659 668.203674,788.704956 
	C665.230347,791.758789 661.854492,793.289551 657.188232,791.897339 
z"/>
<path fill="#0F2214" opacity="1.000000" stroke="none" 
	d="
M224.188934,421.075684 
	C220.516541,437.037201 216.322784,453.111328 212.627045,469.299194 
	C211.053253,476.192657 210.520935,483.323883 209.316208,490.693542 
	C209.118195,486.535309 208.363983,481.874695 209.256149,477.554016 
	C212.463440,462.021088 216.142853,446.582855 219.844330,431.156921 
	C220.671585,427.709351 219.674545,423.367981 224.188934,421.075684 
z"/>
<path fill="#0F2214" opacity="1.000000" stroke="none" 
	d="
M589.998901,817.185791 
	C603.561584,812.329834 617.510071,807.713684 631.431519,803.017273 
	C634.246826,802.067566 636.959778,800.814453 640.059509,799.588562 
	C639.771790,800.672729 639.414978,802.604126 638.474487,802.950439 
	C630.746826,805.795776 622.899841,808.315125 615.113403,811.003784 
	C612.463318,811.918762 609.957764,813.349426 607.254883,813.993896 
	C601.675049,815.324341 596.006958,816.284668 589.998901,817.185791 
z"/>
<path fill="#0F2214" opacity="1.000000" stroke="none" 
	d="
M208.216370,500.144592 
	C208.640335,514.730164 208.751373,529.463684 208.816788,544.634766 
	C206.980179,540.395691 203.315399,536.622498 204.384140,530.657471 
	C205.501282,524.422241 204.659973,517.861755 205.229401,511.493103 
	C205.567642,507.710114 206.976151,504.022858 208.216370,500.144592 
z"/>
<path fill="#0F2214" opacity="1.000000" stroke="none" 
	d="
M641.000854,799.539062 
	C645.823242,796.870056 650.983093,794.389099 656.507935,791.855408 
	C655.937317,793.078857 655.245422,794.709412 654.014282,795.555359 
	C651.650024,797.180237 649.076172,798.615601 646.398926,799.624084 
	C644.910400,800.184875 643.037842,799.726257 641.000854,799.539062 
z"/>
<path fill="#0F2214" opacity="1.000000" stroke="none" 
	d="
M297.045227,737.338257 
	C299.677612,739.350891 302.293182,741.801514 305.043060,744.560059 
	C297.396667,745.146240 297.026672,744.824219 297.045227,737.338257 
z"/>
<path fill="#F3F4DA" opacity="1.000000" stroke="none" 
	d="
M332.631592,275.028564 
	C333.392334,276.451721 333.825623,277.965942 334.498627,280.317749 
	C331.482391,280.546295 328.645874,280.761261 325.368958,280.952972 
	C327.387115,278.993011 329.845642,277.056305 332.631592,275.028564 
z"/>
<path fill="#0F2214" opacity="1.000000" stroke="none" 
	d="
M229.531097,407.071106 
	C228.283447,411.217468 226.691452,415.421509 224.936035,419.914246 
	C224.829636,418.446777 224.440964,416.517273 225.041748,414.972534 
	C226.106598,412.234711 227.772400,409.730652 229.531097,407.071106 
z"/>
<path fill="#0F2214" opacity="1.000000" stroke="none" 
	d="
M289.116638,729.199158 
	C291.722382,731.303528 294.288269,733.807312 296.976501,736.623962 
	C291.464050,736.664124 289.809296,735.150391 289.116638,729.199158 
z"/>
<path fill="#0F2214" opacity="1.000000" stroke="none" 
	d="
M208.791718,493.109039 
	C208.961502,493.179626 209.000961,493.342255 208.958771,493.742065 
	C208.546097,493.773376 208.474182,493.513977 208.791718,493.109039 
z"/>
<path fill="#0F2214" opacity="1.000000" stroke="none" 
	d="
M588.459351,817.926514 
	C588.254333,817.869934 588.259399,817.795410 588.274414,817.822754 
	C588.545898,817.907898 588.802368,817.965698 589.058777,818.023499 
	C588.927307,818.010071 588.795898,817.996582 588.459351,817.926514 
z"/>
<path fill="#A32324" opacity="1.000000" stroke="none" 
	d="
M576.912292,399.723358 
	C577.385559,398.514893 577.858826,397.306427 578.836182,396.179260 
	C581.166138,393.460815 583.641846,390.884766 584.697327,387.819672 
	C587.985229,378.271973 592.045898,369.213501 598.388916,361.273407 
	C598.842834,360.705200 598.845215,359.798859 599.183228,359.111572 
	C600.766541,355.892395 602.344482,352.668793 604.021729,349.498260 
	C605.234802,347.205200 606.600647,344.992950 607.898376,342.744659 
	C607.922546,342.422211 608.076599,342.183594 609.000122,341.999847 
	C611.674805,341.527405 614.538574,341.778931 615.597351,340.516541 
	C619.557129,335.795166 625.003174,335.780334 630.213989,335.064880 
	C633.478210,334.616669 636.832764,334.763397 640.147095,334.754761 
	C652.039185,334.723785 663.935242,334.562225 675.821716,334.821259 
	C681.008057,334.934296 686.174805,335.945923 691.350464,336.549438 
	C691.350464,336.549438 691.394897,336.578552 691.348145,336.938354 
	C692.252319,337.828217 693.203247,338.358276 694.154175,338.888367 
	C694.154175,338.888367 694.068420,338.979004 694.038086,339.202759 
	C693.998169,339.616974 693.988647,339.807373 694.028748,340.350220 
	C697.562622,346.241455 701.086487,351.751373 700.072510,358.807678 
	C699.973328,359.497772 700.611511,360.293854 700.905640,361.446442 
	C700.890930,363.203949 700.878113,364.555786 700.506226,366.064941 
	C699.773560,370.829315 699.279480,375.432251 699.121460,380.046692 
	C699.087463,381.039673 700.266541,382.074188 700.894653,383.551636 
	C700.898926,389.648438 700.895325,395.283142 700.529175,401.069031 
	C698.678833,406.260193 697.421082,411.288605 700.921936,416.540527 
	C700.923218,465.309631 700.919861,513.614990 700.569336,562.051453 
	C698.434631,564.685120 697.959839,567.055298 700.921265,569.543213 
	C700.922852,588.645569 700.920410,607.284363 700.550903,626.070801 
	C699.992493,633.592468 699.789124,640.966248 699.663635,648.341431 
	C699.659546,648.581482 700.451050,648.835022 700.879883,649.518555 
	C700.886658,652.285339 700.885193,654.615967 700.759521,657.065857 
	C700.722839,657.475830 700.810364,657.766479 700.901978,658.464355 
	C700.904175,660.228760 700.902283,661.585938 700.596313,663.170044 
	C700.509277,669.944885 700.726440,676.492859 700.940186,683.365723 
	C700.938599,684.123718 700.940430,684.556885 700.703247,685.260254 
	C698.573914,690.897095 697.963867,696.860046 692.988342,700.780334 
	C692.311096,701.314026 692.446777,702.879395 692.161560,704.035767 
	C692.117126,704.104492 692.066772,704.260193 692.066772,704.260193 
	C691.929321,704.445374 691.791870,704.630615 691.297852,704.707214 
	C690.742004,704.440063 690.542664,704.281555 690.343384,704.123047 
	C690.367676,704.558350 690.391968,704.993713 690.416260,705.429016 
	C690.416260,705.429016 690.315063,705.394043 690.074402,705.383240 
	C689.573425,705.633057 689.313110,705.893677 689.052734,706.154297 
	C689.052734,706.154297 689.062866,706.071655 688.682373,706.062500 
	C674.048645,710.509827 659.514648,708.861572 645.031250,707.944153 
	C642.969666,707.813599 640.965576,706.860535 638.921387,706.341492 
	C637.218628,705.909119 635.496094,705.554810 633.782288,705.165894 
	C633.782288,705.165894 633.905579,705.122559 633.768921,704.930908 
	C633.268555,704.636353 632.904846,704.533447 632.541138,704.430542 
	C632.541138,704.430542 632.538269,704.501221 632.644714,704.098022 
	C632.720093,702.732971 633.054749,701.522705 632.597961,700.849915 
	C629.848267,696.800171 626.917053,692.873657 624.034302,688.443604 
	C624.016846,678.718994 624.006470,669.456665 624.007385,660.194397 
	C624.013367,600.447021 624.021973,540.699585 624.257202,480.735199 
	C623.974670,479.682251 623.464661,478.846283 622.638184,478.005127 
	C621.587769,478.319550 620.853760,478.639099 619.803101,479.123718 
	C618.079163,480.905457 616.223999,482.309662 615.339478,484.174316 
	C610.658752,494.041748 606.228638,504.027893 601.696777,513.966125 
	C600.399231,516.811584 598.888489,519.570923 597.759583,522.479919 
	C594.841980,529.998352 589.578674,536.241333 586.835693,543.953613 
	C583.973145,552.002014 579.767700,559.584473 575.956421,567.274963 
	C575.060364,569.083069 572.972534,570.317749 572.144653,572.139587 
	C568.006531,581.246582 564.038818,590.433105 560.153442,599.651611 
	C558.591064,603.358398 557.391724,607.218201 555.758667,611.227661 
	C553.690186,616.008423 551.890320,620.569885 550.090393,625.131287 
	C550.090393,625.131287 550.053040,625.051514 549.737305,625.079346 
	C547.943481,627.405273 546.465454,629.703369 544.992371,631.999268 
	C544.997375,631.996948 544.997375,631.985352 544.607483,631.985535 
	C540.773010,632.052063 538.773132,633.495178 539.181274,637.250977 
	C539.162659,637.251038 539.204468,637.264893 538.794067,637.191284 
	C535.909668,638.127441 533.280823,638.869324 530.989563,640.194885 
	C522.618103,645.037659 513.847229,644.021973 504.929413,642.507324 
	C498.481171,641.412170 493.317688,637.886780 488.616394,633.818848 
	C486.669739,632.134460 486.560242,627.661560 484.590546,626.800354 
	C479.688965,624.657104 478.911621,620.107544 477.051239,616.347656 
	C471.234039,604.591003 465.887848,592.601624 460.230988,580.763672 
	C460.023468,580.329468 458.474487,580.536316 457.550690,580.444458 
	C457.550690,580.444458 457.565948,580.393372 457.639099,580.038330 
	C457.321289,579.209839 456.930328,578.736389 456.539368,578.263000 
	C456.539368,578.263000 456.640747,578.228699 456.727905,577.876587 
	C453.600677,569.488403 450.685547,561.315491 447.093567,553.451843 
	C442.915375,544.304749 438.262299,535.366211 433.573273,526.464722 
	C431.660004,522.832703 429.110931,519.535645 426.851135,516.086182 
	C426.851105,516.086182 426.944336,516.072632 426.955872,515.696350 
	C425.675110,511.112701 424.806458,506.711792 422.993042,502.742523 
	C420.153961,496.528076 416.676117,490.605408 413.195892,484.044525 
	C413.482300,483.983398 412.553864,484.181580 411.625427,484.379761 
	C411.625427,484.379761 411.659241,484.336090 411.750793,483.942810 
	C412.411621,481.897675 412.980865,480.245850 413.843567,477.742493 
	C411.338989,477.541809 408.698029,476.547333 407.558380,477.449463 
	C406.308868,478.438538 406.087311,481.168823 406.040771,483.154968 
	C405.877869,490.106232 405.985840,497.063812 405.986694,504.018982 
	C405.988892,522.414368 405.987427,540.809753 405.990051,559.205139 
	C405.993713,584.655334 406.049774,610.105774 405.962830,635.555664 
	C405.945343,640.678040 404.882446,645.828003 405.178009,650.914368 
	C406.001282,665.083496 407.310974,679.217407 403.245636,693.162415 
	C402.797089,694.701111 403.120239,696.464661 403.064087,698.083130 
	C403.042694,698.042358 403.128754,698.075378 402.771271,698.096191 
	C399.002045,701.163147 395.590271,704.209229 392.127014,707.213013 
	C392.075531,707.170776 392.206512,707.195007 391.795990,707.134155 
	C389.289215,707.820435 387.192963,708.567566 385.118164,709.233032 
	C385.139618,709.151428 385.293060,709.221863 384.805237,709.153015 
	C373.874481,708.724426 363.431519,708.364624 352.699524,707.747681 
	C347.233307,706.348389 342.056122,705.206299 336.878906,704.064209 
	C336.878906,704.064209 336.955414,704.044678 336.961243,703.698608 
	C335.265900,699.174011 333.656494,694.953796 331.788330,690.851318 
	C331.401703,690.002258 330.053131,689.591309 329.132080,688.513489 
	C329.133911,683.072693 329.151550,678.096802 329.394653,672.765442 
	C329.747101,671.093933 329.985016,669.777893 329.985260,668.461914 
	C330.000885,587.878296 330.002502,507.294708 329.954803,426.711151 
	C329.953857,425.128113 329.352600,423.545410 329.028961,421.542114 
	C329.048126,419.432770 329.069733,417.743866 329.277496,415.879242 
	C329.343201,415.116241 329.222778,414.528992 329.097626,413.534180 
	C329.094330,411.768066 329.095764,410.409576 329.315460,408.805664 
	C329.387604,407.356628 329.241455,406.152985 329.097870,404.632141 
	C329.097504,403.891998 329.094604,403.469055 329.339172,402.711731 
	C329.438293,393.902191 329.289978,385.427094 329.133759,376.486542 
	C329.107666,368.367584 329.089478,360.714081 329.364929,352.863403 
	C333.324585,344.845154 337.261444,337.246582 346.943481,335.577087 
	C349.698975,335.101929 352.531891,334.984894 355.335449,334.894318 
	C373.925323,334.293823 392.608185,331.403534 410.985962,337.416504 
	C412.547974,339.222107 413.845001,341.307190 415.659760,341.966003 
	C420.658875,343.780853 425.928040,345.851837 426.642975,351.455017 
	C427.309631,356.680084 430.148743,358.465332 434.238190,359.837830 
	C434.238190,359.837830 434.152618,359.858459 434.242920,360.067261 
	C434.607819,360.491638 434.882477,360.707153 435.157104,360.922699 
	C435.157104,360.922699 435.069397,360.926270 435.055542,361.284485 
	C436.048157,363.410553 437.054596,365.178375 438.061066,366.946198 
	C438.061066,366.946198 437.997803,366.992859 438.007233,367.381958 
	C439.844055,372.895599 441.660400,378.024078 443.503815,383.142822 
	C444.329651,385.436035 445.020752,387.803955 446.102356,389.973785 
	C448.871094,395.528015 451.798798,401.003937 454.713013,406.484528 
	C456.766571,410.346588 458.902191,414.165009 461.000305,418.377625 
	C461.020416,419.501587 461.041473,420.250824 461.106812,421.308228 
	C461.767517,422.072845 462.383942,422.529327 463.069489,423.319092 
	C464.247375,424.314270 465.356140,424.976135 466.464935,425.637970 
	C466.464935,425.637970 466.368774,425.603271 466.311523,425.973572 
	C466.661041,426.795074 467.067810,427.246277 467.474579,427.697479 
	C467.474579,427.697479 467.209167,427.946899 467.195770,428.182526 
	C467.131744,428.942169 467.081146,429.466217 467.029907,430.336670 
	C467.689819,431.785828 468.350342,432.888580 469.339905,433.951172 
	C469.881348,433.850128 470.093750,433.789215 470.306183,433.728333 
	C470.306183,433.728333 470.227386,433.996857 470.206879,434.196167 
	C470.591095,434.859375 470.995819,435.323242 471.400543,435.787109 
	C471.400543,435.787109 471.297974,435.796021 471.243652,436.051727 
	C471.645294,436.895782 472.101288,437.484161 472.557281,438.072510 
	C472.557281,438.072510 472.888062,438.435333 472.789459,438.813934 
	C472.894714,439.394775 473.098541,439.597046 473.302368,439.799316 
	C473.302368,439.799316 473.201965,439.912628 473.143066,440.223755 
	C473.737610,442.352112 474.391022,444.169342 475.084595,446.348206 
	C475.749237,448.474609 476.373657,450.239410 477.046631,452.358368 
	C482.350433,463.687561 487.551880,474.689240 492.950775,485.593170 
	C493.449585,486.600647 495.205750,486.985535 496.378113,487.659515 
	C496.378113,487.659515 496.290161,487.628265 496.233276,488.054565 
	C496.614410,490.217651 496.822540,492.054871 497.529724,493.674072 
	C500.807495,501.178345 504.071045,508.697571 507.697510,516.034607 
	C508.606873,517.874390 510.841217,519.059265 512.466614,520.545105 
	C512.466614,520.545105 512.473328,520.600342 512.346863,521.004761 
	C512.997009,523.095215 513.773621,524.781189 514.550232,526.467163 
	C515.096985,525.970520 515.643738,525.473877 516.510498,524.897827 
	C519.784424,519.199707 522.812134,513.618225 525.676331,507.954102 
	C531.031250,497.364410 536.350159,486.755524 541.553955,476.091125 
	C543.073547,472.976868 543.934082,469.539429 545.471008,466.435425 
	C552.590942,452.055634 560.022583,437.827606 566.974060,423.368042 
	C570.673706,415.672516 573.623840,407.616608 576.912292,399.723358 
z"/>
<path fill="#FAE9C4" opacity="1.000000" stroke="none" 
	d="
M408.175201,538.990967 
	C408.780243,540.368347 409.817505,541.715271 409.917175,543.128357 
	C410.407318,550.076599 410.725403,557.040283 410.928040,564.003662 
	C410.984833,565.955688 410.190643,567.931824 410.241608,569.885010 
	C410.301758,572.190918 410.843292,574.485901 411.198181,576.782227 
	C411.585999,579.291626 412.125763,581.785767 412.352478,584.308777 
	C412.483765,585.769836 412.013733,587.274292 412.010559,588.759705 
	C411.980164,602.921021 412.068817,617.083069 411.931244,631.243103 
	C411.901062,634.349976 411.123901,637.451721 410.655151,640.550415 
	C410.556580,641.202087 410.135071,641.832458 410.143738,642.468811 
	C410.303406,654.192261 410.762726,665.919067 410.581726,677.636230 
	C410.501526,682.828003 409.192474,688.007812 408.342285,693.176819 
	C408.023163,695.117065 407.649261,697.106934 406.887665,698.898865 
	C406.142944,700.651001 405.224579,702.720398 403.750641,703.680298 
	C401.509399,705.140015 399.357483,705.784790 398.346222,709.057068 
	C397.886597,710.544434 393.055420,710.897522 390.142700,711.311584 
	C388.838318,711.497070 387.375397,710.567261 385.540344,710.115112 
	C385.096252,710.086731 384.976501,709.970581 385.079010,709.793274 
	C385.181519,709.615967 385.293060,709.221863 385.293060,709.221863 
	C385.293060,709.221863 385.139618,709.151428 385.508118,709.239502 
	C387.986603,708.616699 390.096558,707.905823 392.206512,707.195007 
	C392.206512,707.195007 392.075531,707.170776 392.477722,707.168091 
	C396.296173,704.135376 399.712463,701.105347 403.128754,698.075378 
	C403.128754,698.075378 403.042694,698.042358 403.373718,697.897339 
	C405.122589,691.523621 407.570251,685.326721 407.763794,679.060303 
	C408.327759,660.797729 407.979248,642.507324 408.009125,624.227844 
	C408.055573,595.815552 408.118988,567.403259 408.175201,538.990967 
z"/>
<path fill="#88392A" opacity="1.000000" stroke="none" 
	d="
M408.116882,538.525818 
	C408.118988,567.403259 408.055573,595.815552 408.009125,624.227844 
	C407.979248,642.507324 408.327759,660.797729 407.763794,679.060303 
	C407.570251,685.326721 405.122589,691.523621 403.395111,697.938110 
	C403.120239,696.464661 402.797089,694.701111 403.245636,693.162415 
	C407.310974,679.217407 406.001282,665.083496 405.178009,650.914368 
	C404.882446,645.828003 405.945343,640.678040 405.962830,635.555664 
	C406.049774,610.105774 405.993713,584.655334 405.990051,559.205139 
	C405.987427,540.809753 405.988892,522.414368 405.986694,504.018982 
	C405.985840,497.063812 405.877869,490.106232 406.040771,483.154968 
	C406.087311,481.168823 406.308868,478.438538 407.558380,477.449463 
	C408.698029,476.547333 411.338989,477.541809 413.843567,477.742493 
	C412.980865,480.245850 412.411621,481.897675 411.731873,483.922729 
	C410.668274,482.648621 409.715210,481.001312 408.058533,478.137909 
	C408.058533,499.036499 408.058533,518.548584 408.116882,538.525818 
z"/>
<path fill="#82281D" opacity="1.000000" stroke="none" 
	d="
M329.031403,421.962555 
	C329.352600,423.545410 329.953857,425.128113 329.954803,426.711151 
	C330.002502,507.294708 330.000885,587.878296 329.985260,668.461914 
	C329.985016,669.777893 329.747101,671.093933 329.342957,672.286377 
	C329.048218,667.021606 329.132782,661.877502 328.984619,656.739990 
	C328.833282,651.491821 328.453430,646.250244 328.173645,641.005737 
	C328.114777,620.047058 328.014038,599.088440 328.005646,578.129761 
	C327.987488,532.711792 328.016541,487.293884 328.314819,441.105774 
	C328.457855,437.904022 328.312378,435.472412 328.166870,433.040833 
	C328.120392,430.642059 328.073914,428.243317 328.304199,425.155792 
	C328.731110,423.632202 328.881256,422.797394 329.031403,421.962555 
z"/>
<path fill="#833F34" opacity="1.000000" stroke="none" 
	d="
M620.119690,478.958649 
	C620.853760,478.639099 621.587769,478.319550 622.776367,478.289673 
	C623.497192,479.370331 623.763428,480.161255 624.029663,480.952179 
	C624.021973,540.699585 624.013367,600.447021 624.007385,660.194397 
	C624.006470,669.456665 624.016846,678.718994 623.790833,688.472290 
	C623.559631,688.963257 623.071777,689.002869 623.071777,689.002869 
	C622.806519,685.697815 622.313171,682.393005 622.309937,679.087646 
	C622.252258,619.364075 622.253601,559.640381 622.258667,499.028503 
	C622.207642,496.102509 622.140381,494.064758 622.170410,491.570740 
	C622.426331,488.377136 622.781860,485.630890 622.658264,482.906372 
	C622.599060,481.599976 621.632996,480.334686 620.838135,479.027344 
	C620.598694,479.003876 620.119690,478.958649 620.119690,478.958649 
z"/>
<path fill="#923C29" opacity="1.000000" stroke="none" 
	d="
M619.803101,479.123718 
	C620.119690,478.958649 620.598694,479.003876 620.834839,479.387604 
	C620.036499,482.162903 619.001953,484.554474 617.707642,487.173584 
	C611.861023,498.801971 606.221313,510.177338 600.708069,521.613708 
	C597.638306,527.981384 594.779053,534.450500 591.824951,540.873962 
	C591.824951,540.873962 591.918579,540.915405 591.674683,540.981201 
	C591.358887,541.361023 591.286865,541.675049 591.214905,541.989136 
	C584.450195,555.731628 577.685486,569.474182 570.554810,583.774475 
	C565.860107,593.251709 561.531433,602.171143 556.909058,611.067139 
	C556.419250,611.031921 556.223206,611.020081 556.027222,611.008301 
	C557.391724,607.218201 558.591064,603.358398 560.153442,599.651611 
	C564.038818,590.433105 568.006531,581.246582 572.144653,572.139587 
	C572.972534,570.317749 575.060364,569.083069 575.956421,567.274963 
	C579.767700,559.584473 583.973145,552.002014 586.835693,543.953613 
	C589.578674,536.241333 594.841980,529.998352 597.759583,522.479919 
	C598.888489,519.570923 600.399231,516.811584 601.696777,513.966125 
	C606.228638,504.027893 610.658752,494.041748 615.339478,484.174316 
	C616.223999,482.309662 618.079163,480.905457 619.803101,479.123718 
z"/>
<path fill="#863628" opacity="1.000000" stroke="none" 
	d="
M576.571045,399.824127 
	C573.623840,407.616608 570.673706,415.672516 566.974060,423.368042 
	C560.022583,437.827606 552.590942,452.055634 545.471008,466.435425 
	C543.934082,469.539429 543.073547,472.976868 541.553955,476.091125 
	C536.350159,486.755524 531.031250,497.364410 525.676331,507.954102 
	C522.812134,513.618225 519.784424,519.199707 516.467896,524.732300 
	C516.105286,524.646057 516.059998,524.307312 516.059998,524.307312 
	C523.512207,508.586243 530.898010,492.833221 538.431946,477.151398 
	C550.428345,452.181122 562.519470,427.256348 574.593933,402.323639 
	C575.011108,401.462036 575.678894,400.721741 576.571045,399.824127 
z"/>
<path fill="#6D3017" opacity="1.000000" stroke="none" 
	d="
M700.865234,365.907593 
	C700.878113,364.555786 700.890930,363.203949 700.934082,361.019836 
	C701.260742,357.804871 701.557068,355.422180 701.853394,353.039490 
	C701.916809,358.026917 702.035461,363.014343 702.035645,368.001770 
	C702.039673,473.352661 702.030273,578.703552 701.710632,684.518921 
	C701.397766,684.983459 700.942261,684.989990 700.942261,684.989990 
	C700.940430,684.556885 700.938599,684.123718 700.960266,682.893677 
	C700.955933,675.712158 700.928162,669.327698 700.900391,662.943176 
	C700.902283,661.585938 700.904175,660.228760 700.915894,658.186279 
	C700.911743,657.316162 700.897705,657.131348 700.883728,656.946533 
	C700.885193,654.615967 700.886658,652.285339 700.919434,649.042664 
	C700.939880,640.728088 700.928955,633.325623 700.918030,625.923157 
	C700.920410,607.284363 700.922852,588.645569 700.949707,569.094849 
	C700.954956,566.095337 700.935669,564.007812 700.916443,561.920288 
	C700.919861,513.614990 700.923218,465.309631 700.950562,416.066803 
	C700.946899,410.392151 700.919312,405.655029 700.891724,400.917877 
	C700.895325,395.283142 700.898926,389.648438 700.929871,383.075592 
	C700.926575,376.727509 700.895874,371.317566 700.865234,365.907593 
z"/>
<path fill="#F6EEC8" opacity="1.000000" stroke="none" 
	d="
M592.217102,540.897583 
	C594.779053,534.450500 597.638306,527.981384 600.708069,521.613708 
	C606.221313,510.177338 611.861023,498.801971 617.943542,487.423218 
	C619.650452,488.972565 620.861816,490.499817 622.073181,492.027039 
	C622.140381,494.064758 622.207642,496.102509 622.170776,498.566223 
	C620.803467,499.259888 618.943176,499.089508 618.373657,499.865936 
	C614.547974,505.081940 610.632263,510.293060 607.456360,515.907715 
	C604.126221,521.795288 601.855469,528.278442 598.584229,534.204651 
	C597.188293,536.733459 597.501526,541.328430 592.217102,540.897583 
z"/>
<path fill="#88392A" opacity="1.000000" stroke="none" 
	d="
M457.637390,580.792725 
	C458.474487,580.536316 460.023468,580.329468 460.230988,580.763672 
	C465.887848,592.601624 471.234039,604.591003 477.051239,616.347656 
	C478.911621,620.107544 479.688965,624.657104 484.590546,626.800354 
	C486.560242,627.661560 486.669739,632.134460 488.616394,633.818848 
	C493.317688,637.886780 498.481171,641.412170 504.929413,642.507324 
	C513.847229,644.021973 522.618103,645.037659 530.989563,640.194885 
	C533.280823,638.869324 535.909668,638.127441 538.624023,637.483521 
	C533.533569,640.333557 528.202759,642.817749 522.871887,645.301941 
	C502.612946,648.742615 486.761230,640.514526 476.973938,621.051331 
	C470.339294,607.857483 464.125916,594.451843 457.637390,580.792725 
z"/>
<path fill="#7D3628" opacity="1.000000" stroke="none" 
	d="
M410.957153,337.045166 
	C392.608185,331.403534 373.925323,334.293823 355.335449,334.894318 
	C352.531891,334.984894 349.698975,335.101929 346.943481,335.577087 
	C337.261444,337.246582 333.324585,344.845154 329.161407,352.851074 
	C328.664276,353.035950 328.259705,353.002838 328.259705,353.002838 
	C328.460114,342.652802 339.345367,332.232635 352.732117,332.047882 
	C367.839569,331.839417 382.961792,331.697327 398.056946,332.176300 
	C402.853638,332.328491 407.584320,334.561279 412.438538,336.231354 
	C412.006958,336.762207 411.482056,336.903687 410.957153,337.045166 
z"/>
<path fill="#863628" opacity="1.000000" stroke="none" 
	d="
M691.135315,336.289001 
	C686.174805,335.945923 681.008057,334.934296 675.821716,334.821259 
	C663.935242,334.562225 652.039185,334.723785 640.147095,334.754761 
	C636.832764,334.763397 633.478210,334.616669 630.213989,335.064880 
	C625.003174,335.780334 619.557129,335.795166 615.597351,340.516541 
	C614.538574,341.778931 611.674805,341.527405 609.213501,341.943298 
	C615.807800,335.534698 624.149414,332.178162 633.544617,332.020966 
	C647.968506,331.779541 662.411133,331.624390 676.820496,332.139343 
	C681.560669,332.308746 686.222534,334.669708 691.135315,336.289001 
z"/>
<path fill="#88392A" opacity="1.000000" stroke="none" 
	d="
M426.882263,516.455322 
	C429.110931,519.535645 431.660004,522.832703 433.573273,526.464722 
	C438.262299,535.366211 442.915375,544.304749 447.093567,553.451843 
	C450.685547,561.315491 453.600677,569.488403 456.714294,577.928345 
	C448.417633,561.439819 440.215271,544.550476 432.031128,527.652405 
	C430.291046,524.059631 428.617523,520.434692 426.882263,516.455322 
z"/>
<path fill="#863628" opacity="1.000000" stroke="none" 
	d="
M607.582520,342.871979 
	C606.600647,344.992950 605.234802,347.205200 604.021729,349.498260 
	C602.344482,352.668793 600.766541,355.892395 599.183228,359.111572 
	C598.845215,359.798859 598.842834,360.705200 598.388916,361.273407 
	C592.045898,369.213501 587.985229,378.271973 584.697327,387.819672 
	C583.641846,390.884766 581.166138,393.460815 579.131226,396.026398 
	C579.212402,394.363647 579.225464,392.802490 579.835815,391.527191 
	C585.551514,379.584839 591.080444,367.537445 597.299438,355.859131 
	C599.811890,351.141205 603.897095,347.260834 607.582520,342.871979 
z"/>
<path fill="#863628" opacity="1.000000" stroke="none" 
	d="
M461.001221,418.002869 
	C458.902191,414.165009 456.766571,410.346588 454.713013,406.484528 
	C451.798798,401.003937 448.871094,395.528015 446.102356,389.973785 
	C445.020752,387.803955 444.329651,385.436035 443.503815,383.142822 
	C441.660400,378.024078 439.844055,372.895599 438.037689,367.355042 
	C443.763733,378.528687 449.487091,390.109436 455.164856,401.712494 
	C457.496521,406.477478 459.729767,411.290649 461.914917,416.679443 
	C461.548431,417.518921 461.274841,417.760895 461.001221,418.002869 
z"/>
<path fill="#FAE9C4" opacity="1.000000" stroke="none" 
	d="
M557.202759,611.090576 
	C561.531433,602.171143 565.860107,593.251709 570.459595,584.125671 
	C573.764160,585.518188 572.962158,587.108521 571.179260,589.364807 
	C569.845825,591.052368 569.361877,593.436340 568.603882,595.547668 
	C567.448792,598.764893 568.142395,602.650513 564.146362,604.807068 
	C562.617188,605.632324 562.089294,608.334961 561.134583,610.197144 
	C559.771423,612.856079 558.435364,615.528931 556.532776,619.294128 
	C556.059692,617.179138 555.921387,616.560486 555.803162,615.306030 
	C556.283081,613.476990 556.742859,612.283752 557.202759,611.090576 
M565.678528,600.137817 
	C565.609009,600.179016 565.539490,600.220215 565.678528,600.137817 
z"/>
<path fill="#FAE9C4" opacity="1.000000" stroke="none" 
	d="
M385.157562,710.143311 
	C384.639374,710.717712 384.026520,711.718567 383.485382,711.681152 
	C374.925079,711.090027 366.620239,711.616638 358.395111,714.671875 
	C355.340332,715.806580 351.246094,716.135315 348.562927,712.301575 
	C347.654663,711.003784 345.709015,710.432129 344.589783,709.177063 
	C346.950195,709.093262 348.958221,709.360962 351.426086,709.737549 
	C362.916077,709.887817 373.946289,709.929199 384.976501,709.970581 
	C384.976501,709.970581 385.096252,710.086731 385.157562,710.143311 
z"/>
<path fill="#FAE9C4" opacity="1.000000" stroke="none" 
	d="
M523.005615,645.690002 
	C528.202759,642.817749 533.533569,640.333557 539.034424,637.557129 
	C539.204468,637.264893 539.162659,637.251038 539.486206,637.160217 
	C540.967590,636.152832 542.125305,635.236206 543.470825,634.499268 
	C543.783142,634.799255 543.907776,634.919617 544.032410,635.039978 
	C543.651245,640.072449 540.370483,642.813477 536.326172,645.088318 
	C535.127563,645.762512 534.451111,647.557007 533.237549,647.976440 
	C529.626282,649.224487 525.778259,650.494873 523.005615,645.690002 
z"/>
<path fill="#863628" opacity="1.000000" stroke="none" 
	d="
M410.985962,337.416504 
	C411.482056,336.903687 412.006958,336.762207 412.739014,336.442047 
	C422.859283,341.240387 429.924316,348.863342 434.203430,359.472321 
	C430.148743,358.465332 427.309631,356.680084 426.642975,351.455017 
	C425.928040,345.851837 420.658875,343.780853 415.659760,341.966003 
	C413.845001,341.307190 412.547974,339.222107 410.985962,337.416504 
z"/>
<path fill="#88392A" opacity="1.000000" stroke="none" 
	d="
M496.304352,487.308746 
	C495.205750,486.985535 493.449585,486.600647 492.950775,485.593170 
	C487.551880,474.689240 482.350433,463.687561 477.047852,451.955017 
	C476.987244,449.855347 476.973999,448.513214 476.960724,447.171082 
	C483.384033,460.433380 489.807312,473.695679 496.304352,487.308746 
z"/>
<path fill="#7D3628" opacity="1.000000" stroke="none" 
	d="
M633.978271,705.458496 
	C635.496094,705.554810 637.218628,705.909119 638.921387,706.341492 
	C640.965576,706.860535 642.969666,707.813599 645.031250,707.944153 
	C659.514648,708.861572 674.048645,710.509827 688.722290,706.074524 
	C685.615295,707.354797 682.126831,709.550964 678.553589,709.698547 
	C667.470093,710.156738 656.338196,710.170654 645.260254,709.632202 
	C641.510925,709.449951 637.866577,707.106689 633.978271,705.458496 
z"/>
<path fill="#88392A" opacity="1.000000" stroke="none" 
	d="
M411.697876,484.726257 
	C412.553864,484.181580 413.482300,483.983398 413.195892,484.044525 
	C416.676117,490.605408 420.153961,496.528076 422.993042,502.742523 
	C424.806458,506.711792 425.675110,511.112701 426.927521,515.734009 
	C421.848541,505.789490 416.809418,495.431091 411.697876,484.726257 
z"/>
<path fill="#88392A" opacity="1.000000" stroke="none" 
	d="
M512.383789,520.202026 
	C510.841217,519.059265 508.606873,517.874390 507.697510,516.034607 
	C504.071045,508.697571 500.807495,501.178345 497.529724,493.674072 
	C496.822540,492.054871 496.614410,490.217651 496.268463,488.083496 
	C501.674011,498.410431 506.987518,509.134735 512.383789,520.202026 
z"/>
<path fill="#673221" opacity="1.000000" stroke="none" 
	d="
M328.152405,353.460938 
	C328.259705,353.002838 328.664276,353.035950 328.867798,353.048248 
	C329.089478,360.714081 329.107666,368.367584 329.092773,376.957581 
	C329.070374,386.278076 329.081024,394.662079 329.091705,403.046112 
	C329.094604,403.469055 329.097504,403.891998 329.065674,405.041992 
	C329.053009,406.863037 329.075104,407.957062 329.097198,409.051056 
	C329.095764,410.409576 329.094330,411.768066 329.066895,413.886078 
	C329.057709,415.115387 329.074524,415.585175 329.091370,416.054993 
	C329.069733,417.743866 329.048126,419.432770 329.028961,421.542114 
	C328.881256,422.797394 328.731110,423.632202 328.376770,424.711426 
	C328.130066,401.276886 328.087616,377.597961 328.152405,353.460938 
z"/>
<path fill="#F3F4DA" opacity="1.000000" stroke="none" 
	d="
M248.028702,670.924622 
	C245.200089,666.488525 242.537659,661.678833 239.825592,656.513245 
	C247.447510,658.806885 250.075638,663.300110 248.028702,670.924622 
z"/>
<path fill="#673221" opacity="1.000000" stroke="none" 
	d="
M328.093475,641.468750 
	C328.453430,646.250244 328.833282,651.491821 328.984619,656.739990 
	C329.132782,661.877502 329.048218,667.021606 329.117493,672.641907 
	C329.151550,678.096802 329.133911,683.072693 328.905487,688.528015 
	C328.694733,689.007507 328.245239,689.040649 328.245239,689.040649 
	C328.167938,673.337646 328.090607,657.634705 328.093475,641.468750 
z"/>
<path fill="#82281D" opacity="1.000000" stroke="none" 
	d="
M328.235352,689.406128 
	C328.245239,689.040649 328.694733,689.007507 328.921326,688.992981 
	C330.053131,689.591309 331.401703,690.002258 331.788330,690.851318 
	C333.656494,694.953796 335.265900,699.174011 336.951355,703.736816 
	C331.708435,700.748535 329.657990,695.447571 328.235352,689.406128 
z"/>
<path fill="#7D3628" opacity="1.000000" stroke="none" 
	d="
M623.044556,689.382080 
	C623.071777,689.002869 623.559631,688.963257 623.803101,688.934570 
	C626.917053,692.873657 629.848267,696.800171 632.597961,700.849915 
	C633.054749,701.522705 632.720093,702.732971 632.609375,704.098999 
	C627.173340,700.963623 624.588440,695.687439 623.044556,689.382080 
z"/>
<path fill="#843523" opacity="1.000000" stroke="none" 
	d="
M700.703247,685.260254 
	C700.942261,684.989990 701.397766,684.983459 701.625488,684.979248 
	C702.361084,692.771667 698.401001,698.494385 692.788940,703.803833 
	C692.386963,703.970825 692.205994,703.967041 692.205994,703.967041 
	C692.446777,702.879395 692.311096,701.314026 692.988342,700.780334 
	C697.963867,696.860046 698.573914,690.897095 700.703247,685.260254 
z"/>
<path fill="#843523" opacity="1.000000" stroke="none" 
	d="
M701.904785,352.658081 
	C701.557068,355.422180 701.260742,357.804871 700.935913,360.614136 
	C700.611511,360.293854 699.973328,359.497772 700.072510,358.807678 
	C701.086487,351.751373 697.562622,346.241455 694.363281,340.328735 
	C694.869507,339.926178 695.090820,339.897644 695.312073,339.869141 
	C697.526794,344.004974 699.741516,348.140808 701.904785,352.658081 
z"/>
<path fill="#82281D" opacity="1.000000" stroke="none" 
	d="
M350.966309,709.628662 
	C348.958221,709.360962 346.950195,709.093262 344.556519,708.821655 
	C344.170868,708.817871 344.161926,708.861633 343.954956,708.592529 
	C342.534332,707.832947 341.320679,707.342468 340.107056,706.851990 
	C340.107056,706.851990 340.071869,706.949829 340.009216,706.689636 
	C339.633698,706.330139 339.320831,706.230835 339.007996,706.131592 
	C338.374695,705.630615 337.741394,705.129639 336.993530,704.346436 
	C342.056122,705.206299 347.233307,706.348389 352.416077,707.786255 
	C351.936554,708.597656 351.451416,709.113159 350.966309,709.628662 
z"/>
<path fill="#88392A" opacity="1.000000" stroke="none" 
	d="
M556.909058,611.067139 
	C556.742859,612.283752 556.283081,613.476990 555.750488,614.980896 
	C554.012146,618.453735 552.346680,621.615784 550.385803,624.954590 
	C551.890320,620.569885 553.690186,616.008423 555.758606,611.227661 
	C556.223206,611.020081 556.419250,611.031921 556.909058,611.067139 
z"/>
<path fill="#88392A" opacity="1.000000" stroke="none" 
	d="
M461.000305,418.377625 
	C461.274841,417.760895 461.548431,417.518921 461.959320,417.037598 
	C463.481964,419.519165 464.867279,422.240021 466.358765,425.299438 
	C465.356140,424.976135 464.247375,424.314270 463.012451,423.015503 
	C462.278351,421.919067 461.670441,421.459564 461.062531,421.000061 
	C461.041473,420.250824 461.020416,419.501587 461.000305,418.377625 
z"/>
<path fill="#FAE9C4" opacity="1.000000" stroke="none" 
	d="
M546.738770,630.916382 
	C547.302307,631.187988 547.865906,631.459717 548.714722,631.865723 
	C549.000000,632.000000 549.002441,632.002441 549.002441,632.002441 
	C547.541992,633.092957 546.081543,634.183472 544.326721,635.156982 
	C543.907776,634.919617 543.783142,634.799255 543.641968,634.257202 
	C544.082764,633.218750 544.540039,632.602051 544.997375,631.985352 
	C544.997375,631.985352 544.997375,631.996948 545.228271,631.885498 
	C545.885681,631.488159 546.312195,631.202271 546.738770,630.916382 
z"/>
<path fill="#F3F4DA" opacity="1.000000" stroke="none" 
	d="
M220.792267,477.137329 
	C219.981522,478.104492 219.130447,478.741028 218.279373,479.377563 
	C218.119705,477.853821 217.960068,476.330109 217.800430,474.806366 
	C218.209259,474.685638 218.618103,474.564941 219.026947,474.444214 
	C219.601959,475.231720 220.176956,476.019226 220.792267,477.137329 
z"/>
<path fill="#88392A" opacity="1.000000" stroke="none" 
	d="
M546.840942,630.589355 
	C546.312195,631.202271 545.885681,631.488159 545.223267,631.887817 
	C546.465454,629.703369 547.943481,627.405273 549.779663,625.091309 
	C549.072876,626.804504 548.007996,628.533386 546.840942,630.589355 
z"/>
<path fill="#88392A" opacity="1.000000" stroke="none" 
	d="
M515.817261,524.521240 
	C516.059998,524.307312 516.105286,524.646057 516.147827,524.811646 
	C515.643738,525.473877 515.096985,525.970520 514.550232,526.467163 
	C513.773621,524.781189 512.997009,523.095215 512.347778,521.032593 
	C513.508301,522.015686 514.541443,523.375427 515.817261,524.521240 
z"/>
<path fill="#88392A" opacity="1.000000" stroke="none" 
	d="
M475.044434,445.986572 
	C474.391022,444.169342 473.737610,442.352112 473.164124,440.151062 
	C474.253998,441.639526 475.263885,443.511841 476.116394,445.693481 
	C475.654175,445.996185 475.349304,445.990753 475.044434,445.986572 
z"/>
<path fill="#863628" opacity="1.000000" stroke="none" 
	d="
M438.035217,366.600189 
	C437.054596,365.178375 436.048157,363.410553 435.079712,361.247864 
	C436.081573,362.653381 437.045471,364.453796 438.035217,366.600189 
z"/>
<path fill="#FAE9C4" opacity="1.000000" stroke="none" 
	d="
M340.088928,707.204102 
	C341.320679,707.342468 342.534332,707.832947 343.959106,708.575989 
	C342.700928,708.735718 340.402649,711.313843 340.088928,707.204102 
z"/>
<path fill="#673221" opacity="1.000000" stroke="none" 
	d="
M328.082275,433.473206 
	C328.312378,435.472412 328.457855,437.904022 328.385590,440.638123 
	C328.111115,438.595612 328.054413,436.250610 328.082275,433.473206 
z"/>
<path fill="#863628" opacity="1.000000" stroke="none" 
	d="
M475.084595,446.348206 
	C475.349304,445.990753 475.654175,445.996185 476.188171,446.003296 
	C476.564240,446.171997 476.711182,446.340271 476.909424,446.839783 
	C476.973999,448.513214 476.987244,449.855347 476.999298,451.600830 
	C476.373657,450.239410 475.749237,448.474609 475.084595,446.348206 
z"/>
<path fill="#863628" opacity="1.000000" stroke="none" 
	d="
M694.053589,338.592102 
	C693.203247,338.358276 692.252319,337.828217 691.370361,336.923767 
	C692.277222,337.131561 693.115112,337.713715 694.053589,338.592102 
z"/>
<path fill="#88392A" opacity="1.000000" stroke="none" 
	d="
M472.483765,437.808105 
	C472.101288,437.484161 471.645294,436.895782 471.265747,436.005249 
	C471.698181,436.316589 472.054230,436.930145 472.483765,437.808105 
z"/>
<path fill="#88392A" opacity="1.000000" stroke="none" 
	d="
M468.475677,429.621185 
	C468.749298,430.097565 469.022919,430.573944 469.242645,431.430054 
	C469.188721,431.809784 468.971191,432.018219 468.757202,431.823517 
	C468.357941,431.090210 468.172638,430.551605 468.109009,429.914551 
	C468.230682,429.816071 468.475677,429.621185 468.475677,429.621185 
z"/>
<path fill="#88392A" opacity="1.000000" stroke="none" 
	d="
M471.359070,435.482422 
	C470.995819,435.323242 470.591095,434.859375 470.231812,434.058807 
	C470.624023,434.207306 470.970825,434.692505 471.359070,435.482422 
z"/>
<path fill="#88392A" opacity="1.000000" stroke="none" 
	d="
M470.275208,433.432617 
	C470.093750,433.789215 469.881348,433.850128 469.335632,433.622375 
	C468.991974,432.895233 468.981567,432.456726 468.971191,432.018219 
	C468.971191,432.018219 469.188721,431.809784 469.296936,431.704346 
	C469.684845,432.111572 469.964569,432.624268 470.275208,433.432617 
z"/>
<path fill="#88392A" opacity="1.000000" stroke="none" 
	d="
M467.030548,429.990234 
	C467.081146,429.466217 467.131744,428.942169 467.312195,428.042511 
	C467.741547,428.134277 468.041046,428.601685 468.408112,429.345123 
	C468.475677,429.621185 468.230682,429.816071 467.869934,429.907043 
	C467.509155,429.998016 467.030548,429.990234 467.030548,429.990234 
z"/>
<path fill="#88392A" opacity="1.000000" stroke="none" 
	d="
M456.593140,578.555420 
	C456.930328,578.736389 457.321289,579.209839 457.621582,580.018188 
	C457.236267,579.851379 456.941589,579.349548 456.593140,578.555420 
z"/>
<path fill="#88392A" opacity="1.000000" stroke="none" 
	d="
M467.416748,427.410339 
	C467.067810,427.246277 466.661041,426.795074 466.347076,426.010284 
	C466.746216,426.158875 467.052551,426.641052 467.416748,427.410339 
z"/>
<path fill="#7D3628" opacity="1.000000" stroke="none" 
	d="
M690.604248,705.397278 
	C690.391968,704.993713 690.367676,704.558350 690.343384,704.123047 
	C690.542664,704.281555 690.742004,704.440063 690.971680,704.822754 
	C691.002014,705.046997 690.792297,705.365540 690.604248,705.397278 
z"/>
<path fill="#7D3628" opacity="1.000000" stroke="none" 
	d="
M632.702393,704.664856 
	C632.904846,704.533447 633.268555,704.636353 633.779419,704.995361 
	C633.572266,705.134033 633.217957,705.016602 632.702393,704.664856 
z"/>
<path fill="#7D3628" opacity="1.000000" stroke="none" 
	d="
M692.161560,704.035767 
	C692.205994,703.967041 692.386963,703.970825 692.476562,703.966187 
	C692.566162,703.961609 692.296997,704.318420 692.181885,704.289307 
	C692.066772,704.260193 692.117126,704.104492 692.161560,704.035767 
z"/>
<path fill="#88392A" opacity="1.000000" stroke="none" 
	d="
M473.283569,439.551575 
	C473.098541,439.597046 472.894714,439.394775 472.818359,439.057739 
	C472.945831,438.922913 473.264771,439.303864 473.283569,439.551575 
z"/>
<path fill="#7D3628" opacity="1.000000" stroke="none" 
	d="
M689.332642,706.116455 
	C689.313110,705.893677 689.573425,705.633057 690.120239,705.355652 
	C690.142090,705.585449 689.877380,705.831970 689.332642,706.116455 
z"/>
<path fill="#863628" opacity="1.000000" stroke="none" 
	d="
M695.199158,339.612518 
	C695.090820,339.897644 694.869507,339.926178 694.313721,339.976257 
	C693.988647,339.807373 693.998169,339.616974 694.060059,339.144379 
	C694.437012,339.026794 694.761597,339.191345 695.199158,339.612518 
z"/>
<path fill="#863628" opacity="1.000000" stroke="none" 
	d="
M435.100342,360.653107 
	C434.882477,360.707153 434.607819,360.491638 434.248047,360.023560 
	C434.456512,359.975189 434.750061,360.179352 435.100342,360.653107 
z"/>
<path fill="#F6EEC8" opacity="1.000000" stroke="none" 
	d="
M591.390869,541.836548 
	C591.286865,541.675049 591.358887,541.361023 591.654175,540.934265 
	C591.882324,541.148071 591.778748,541.435547 591.390869,541.836548 
z"/>
<path fill="#F3F4DA" opacity="1.000000" stroke="none" 
	d="
M209.338379,547.882935 
	C209.166534,547.824341 209.110504,547.652100 209.117172,547.215698 
	C209.498459,547.161194 209.589905,547.433838 209.338379,547.882935 
z"/>
<path fill="#FAE9C4" opacity="1.000000" stroke="none" 
	d="
M548.998779,631.998779 
	C548.997559,631.997559 549.239319,631.605774 549.239319,631.605774 
	C549.239319,631.605774 549.225647,631.906921 549.114014,631.954712 
	C549.002441,632.002441 549.000000,632.000000 548.998779,631.998779 
z"/>
<path fill="#FAE9C4" opacity="1.000000" stroke="none" 
	d="
M339.147949,706.328064 
	C339.320831,706.230835 339.633698,706.330139 340.052673,706.661133 
	C339.817871,706.889771 339.527588,706.767029 339.147949,706.328064 
z"/>
<path fill="#FEFCD4" opacity="1.000000" stroke="none" 
	d="
M317.570068,291.197845 
	C317.535156,291.218170 317.605011,291.177551 317.570068,291.197845 
z"/>
<path fill="#88392A" opacity="1.000000" stroke="none" 
	d="
M351.426086,709.737549 
	C351.451416,709.113159 351.936554,708.597656 352.705109,708.043518 
	C363.431519,708.364624 373.874481,708.724426 384.805237,709.153015 
	C385.293060,709.221863 385.181519,709.615967 385.079010,709.793274 
	C373.946289,709.929199 362.916077,709.887817 351.426086,709.737549 
z"/>
<path fill="#843523" opacity="1.000000" stroke="none" 
	d="
M700.550903,626.070801 
	C700.928955,633.325623 700.939880,640.728088 700.911255,648.606445 
	C700.451050,648.835022 699.659546,648.581482 699.663635,648.341431 
	C699.789124,640.966248 699.992493,633.592468 700.550903,626.070801 
z"/>
<path fill="#843523" opacity="1.000000" stroke="none" 
	d="
M700.506226,366.064941 
	C700.895874,371.317566 700.926575,376.727509 700.921997,382.613525 
	C700.266541,382.074188 699.087463,381.039673 699.121460,380.046692 
	C699.279480,375.432251 699.773560,370.829315 700.506226,366.064941 
z"/>
<path fill="#88392A" opacity="1.000000" stroke="none" 
	d="
M402.771271,698.096191 
	C399.712463,701.105347 396.296173,704.135376 392.529175,707.210327 
	C395.590271,704.209229 399.002045,701.163147 402.771271,698.096191 
z"/>
<path fill="#843523" opacity="1.000000" stroke="none" 
	d="
M700.529175,401.069031 
	C700.919312,405.655029 700.946899,410.392151 700.945923,415.603027 
	C697.421082,411.288605 698.678833,406.260193 700.529175,401.069031 
z"/>
<path fill="#843523" opacity="1.000000" stroke="none" 
	d="
M700.596313,663.170044 
	C700.928162,669.327698 700.955933,675.712158 700.963623,682.568787 
	C700.726440,676.492859 700.509277,669.944885 700.596313,663.170044 
z"/>
<path fill="#82281D" opacity="1.000000" stroke="none" 
	d="
M329.339172,402.711731 
	C329.081024,394.662079 329.070374,386.278076 329.100708,377.423004 
	C329.289978,385.427094 329.438293,393.902191 329.339172,402.711731 
z"/>
<path fill="#88392A" opacity="1.000000" stroke="none" 
	d="
M544.607483,631.985535 
	C544.540039,632.602051 544.082764,633.218750 543.454224,634.077515 
	C542.125305,635.236206 540.967590,636.152832 539.504883,637.160156 
	C538.773132,633.495178 540.773010,632.052063 544.607483,631.985535 
z"/>
<path fill="#843523" opacity="1.000000" stroke="none" 
	d="
M700.569336,562.051453 
	C700.935669,564.007812 700.954956,566.095337 700.945740,568.631226 
	C697.959839,567.055298 698.434631,564.685120 700.569336,562.051453 
z"/>
<path fill="#88392A" opacity="1.000000" stroke="none" 
	d="
M391.795990,707.134155 
	C390.096558,707.905823 387.986603,708.616699 385.486694,709.321167 
	C387.192963,708.567566 389.289215,707.820435 391.795990,707.134155 
z"/>
<path fill="#923C29" opacity="1.000000" stroke="none" 
	d="
M624.257202,480.735199 
	C623.763428,480.161255 623.497192,479.370331 623.092773,478.294861 
	C623.464661,478.846283 623.974670,479.682251 624.257202,480.735199 
z"/>
<path fill="#863628" opacity="1.000000" stroke="none" 
	d="
M467.029907,430.336670 
	C467.030548,429.990234 467.509155,429.998016 467.748260,430.005524 
	C468.172638,430.551605 468.357941,431.090210 468.757202,431.823517 
	C468.981567,432.456726 468.991974,432.895233 469.006622,433.662537 
	C468.350342,432.888580 467.689819,431.785828 467.029907,430.336670 
z"/>
<path fill="#82281D" opacity="1.000000" stroke="none" 
	d="
M329.315460,408.805664 
	C329.075104,407.957062 329.053009,406.863037 329.063110,405.359192 
	C329.241455,406.152985 329.387604,407.356628 329.315460,408.805664 
z"/>
<path fill="#863628" opacity="1.000000" stroke="none" 
	d="
M461.106812,421.308228 
	C461.670441,421.459564 462.278351,421.919067 462.943298,422.682190 
	C462.383942,422.529327 461.767517,422.072845 461.106812,421.308228 
z"/>
<path fill="#82281D" opacity="1.000000" stroke="none" 
	d="
M329.277527,415.879242 
	C329.074524,415.585175 329.057709,415.115387 329.071594,414.293640 
	C329.222778,414.528992 329.343201,415.116241 329.277527,415.879242 
z"/>
<path fill="#843523" opacity="1.000000" stroke="none" 
	d="
M700.759521,657.065857 
	C700.897705,657.131348 700.911743,657.316162 700.911743,657.779053 
	C700.810364,657.766479 700.722839,657.475830 700.759521,657.065857 
z"/>
<path fill="#FEFCD4" opacity="1.000000" stroke="none" 
	d="
M622.170410,491.570770 
	C620.861816,490.499817 619.650452,488.972565 618.203247,487.195679 
	C619.001953,484.554474 620.036499,482.162903 621.074341,479.411072 
	C621.632996,480.334686 622.599060,481.599976 622.658264,482.906372 
	C622.781860,485.630890 622.426331,488.377136 622.170410,491.570770 
z"/>
<path fill="#FEFCD4" opacity="1.000000" stroke="none" 
	d="
M565.574280,600.199585 
	C565.539490,600.220215 565.609009,600.179016 565.574280,600.199585 
z"/>
</svg>